<svg width="361" height="269" viewBox="0 0 361 269" fill="none" xmlns="http://www.w3.org/2000/svg">
<path d="M122.421 106.255V112.937H136.436H150.451L150.432 136.568C150.414 162.084 150.432 160.544 150.11 162.404C149.485 166.001 147.951 168.742 145.408 170.786C143.508 172.314 141.46 173.231 138.973 173.669C138.02 173.835 135.891 173.896 134.821 173.786C130.044 173.305 125.316 170.873 120.36 166.364C119.679 165.748 119.624 165.712 119.543 165.816C119.5 165.884 117.594 168.508 115.317 171.661L111.165 177.388L111.394 177.629C111.809 178.06 113.158 179.279 113.913 179.907C119.927 184.89 126.752 187.587 134.759 188.142C136.337 188.246 140.037 188.179 141.38 188.018C144.975 187.581 147.846 186.768 150.729 185.364C153.025 184.249 154.912 182.956 156.966 181.09C161.366 177.093 164.07 171.273 164.992 163.827C165.351 160.975 165.326 163.433 165.344 130.133L165.363 99.573H143.892H122.421V106.255Z" fill="#C972FF"/>
<path d="M179.039 143.632V187.685H199.434C221.894 187.685 221.727 187.685 225.233 187.278C232.202 186.463 237.675 184.395 241.466 181.135C242.295 180.425 243.377 179.295 244.1 178.393C247.143 174.59 248.837 170.527 249.363 165.798C249.486 164.668 249.468 161.519 249.332 160.395C248.831 156.376 247.631 153.258 245.455 150.362C242.449 146.361 238.065 143.564 232.679 142.212C232.171 142.083 231.739 141.959 231.714 141.94C231.689 141.916 232.035 141.737 232.487 141.533C234.812 140.502 235.703 139.983 237.663 138.532C239.815 136.933 241.398 135.056 242.517 132.772C243.593 130.568 244.224 128.129 244.465 125.295C244.558 124.159 244.539 121.572 244.434 120.534C244.026 116.663 242.647 113.082 240.322 109.828C239.135 108.167 237.694 106.574 236.55 105.667C235.461 104.802 233.959 103.876 232.518 103.197C229.08 101.567 224.967 100.474 220.317 99.95C217.2 99.604 218.183 99.622 197.826 99.598L179.039 99.573V143.632ZM216.576 113.49C220.447 113.909 222.858 114.638 224.924 116.009C225.654 116.49 226.754 117.577 227.2 118.256C227.886 119.287 228.436 120.633 228.69 121.899C229.08 123.825 229.104 126.029 228.758 127.709C227.787 132.42 223.854 135.18 217.07 135.908C215.234 136.112 214.046 136.131 204.041 136.131H193.942V124.739V113.341L204.783 113.366C214.411 113.385 215.722 113.397 216.576 113.49ZM219.142 150.01C223.477 150.43 226.025 151.035 228.35 152.196C232.561 154.301 234.453 157.728 234.144 162.711C233.959 165.687 233.328 167.687 232.035 169.404C230.125 171.929 225.988 173.472 220.07 173.855C219.445 173.892 214.498 173.917 206.514 173.917H193.942V161.908V149.893L206.174 149.918C214.856 149.936 218.616 149.961 219.142 150.01Z" fill="#C972FF"/>
<path d="M51.414 106.785L0.7962 130.211L0.764599 143.812L0.7435 157.413L51.277 180.692C79.074 193.502 101.884 204.003 101.958 204.024C102.053 204.066 102.084 201.578 102.084 191.804V179.532L101.694 179.342C101.473 179.237 84.611 171.425 64.227 161.988C43.842 152.552 26.9804 144.74 26.7589 144.634L26.3687 144.445V143.285V142.115L64.184 125.035C84.99 115.641 102.021 107.913 102.042 107.849C102.063 107.797 102.074 102.262 102.063 95.556L102.032 83.368L51.414 106.785Z" fill="#C972FF"/>
<path d="M258.584 95.662L258.616 107.955L296.453 125.035L334.289 142.125L334.258 143.317L334.226 144.518L296.4 162.031L258.563 179.543V191.815C258.563 198.563 258.584 204.077 258.616 204.077C258.679 204.077 358.987 157.887 359.619 157.571L360.01 157.371L359.988 143.823L359.957 130.264L309.603 106.964C281.911 94.143 259.09 83.59 258.901 83.516L258.563 83.368L258.584 95.662Z" fill="#C972FF"/>
<path fill-rule="evenodd" clip-rule="evenodd" d="M243.949 75.215L206.038 53.2675L185.434 88.432H236.205L243.949 75.215ZM172.713 196.801H121.937L109.873 217.389L102.078 261.327C103.284 268.447 106.155 270.257 113.239 267.353L147.755 239.398L172.713 196.801ZM255.777 2.34531L265.608 9.04281C277.052 14.8574 273.959 25.6471 267.473 36.7255L247.905 70.1244L209.229 47.69L228.797 14.2911C235.285 3.2172 244.333 -3.46929 255.777 2.34531Z" fill="#C972FF"/>
</svg>
